<svg width="230" height="223" viewBox="0 0 230 223" fill="none" xmlns="http://www.w3.org/2000/svg">
<g filter="url(#filter0_ddii_1_386)">
<ellipse cx="56.6631" cy="42.1492" rx="23.863" ry="23.0107" transform="rotate(-92.8228 56.6631 42.1492)" fill="url(#paint0_radial_1_386)"/>
<path d="M55.5617 19.8134C67.3765 19.2308 77.5369 28.7023 78.1477 41.0898C78.7585 53.4774 69.5791 63.9025 57.7644 64.485C45.9497 65.0676 35.7892 55.5961 35.1784 43.2086C34.5676 30.821 43.747 20.3959 55.5617 19.8134Z" stroke="url(#paint1_radial_1_386)" stroke-width="3"/>
</g>
<g filter="url(#filter1_dddii_1_386)">
<circle cx="135.054" cy="109.107" r="70.7367" transform="rotate(-92.8228 135.054 109.107)" fill="url(#paint2_radial_1_386)"/>
<circle cx="135.054" cy="109.107" r="66.7367" transform="rotate(-92.8228 135.054 109.107)" stroke="url(#paint3_radial_1_386)" stroke-width="8"/>
</g>
<path opacity="0.4" d="M193.651 103.445C194.2 114.587 191.338 127.696 187.249 138.216C183.644 147.488 172.528 151.982 164.06 155.664C156.771 158.834 150.252 162.38 142.775 164.991C134.887 167.746 128.244 165.372 120.727 162.887C111.256 159.756 105.559 154.522 98.6401 147.821C94.0766 143.401 94.1084 134.807 93.9046 129.007C93.4409 115.806 93.8865 101.422 96.8661 88.4722C97.8345 84.2634 97.6998 79.5152 98.9798 75.4536C99.6086 73.4582 100.131 69.1431 101.251 67.6628C107.239 59.7508 118.474 59.5836 127.985 59.1146C140.417 58.5016 153.849 60.6004 161.787 70.9606C166.174 76.6854 167.714 84.3081 168.745 91.1607C169.316 94.95 170.843 98.1385 171.039 102.117C171.299 107.38 170.811 113.373 172.296 118.46C176.371 132.414 155.686 136.999 145.715 137.222C140.438 137.34 131.948 134.248 128.078 131.111C124.786 128.443 119.764 125.164 115.364 125.256C109.739 125.373 103.188 124.419 97.6906 123.485C93.3431 122.746 88.9554 119.448 86.9227 115.439C82.9609 107.626 82.5599 100.118 82.1345 91.4922C81.5503 79.644 91.4463 78.6523 101.129 78.3893C111.205 78.1156 121.469 79.9449 131.55 79.5818C143.86 79.1385 156.022 78.3752 168.236 77.7729C173.032 77.5364 176.791 75.7249 181.565 77.8138C184.784 79.2223 187.409 82.6487 188.969 85.7258C192.399 92.4885 192.501 98.4123 192.884 106.176" stroke="#F2A057" stroke-width="3" stroke-linecap="round"/>
<path d="M177.421 111.543C163.586 127.17 140.099 151.791 115.785 146.278C97.9542 142.235 96.0892 121.993 88.8017 109.072C86.7052 105.354 73.7812 108.215 76.3325 104.746C81.5344 97.6734 95.9094 96.834 103.559 98.4627C119.922 101.947 131.321 114.093 145.891 120.926C153.952 124.707 148.304 109.515 147.789 106.163C145.629 92.1024 142.793 77.4806 142.093 63.2707C142.068 62.769 142.805 64.0072 143.181 64.3572C148.13 68.97 151.935 74.8578 156.132 80.0606C166.505 92.9204 178.196 105.22 186.565 119.453C195.125 134.012 154.3 132.29 147.363 131.419C130.135 129.256 125.199 106.955 120.686 93.9698C118.378 87.3279 117.737 77.7992 108.439 78.0037C102.687 78.1302 102.673 80.3221 100.886 84.6089C96.1152 96.0541 111.013 107.405 119.527 112.421C132.677 120.169 146.197 114.867 155.921 104.85C160.306 100.334 163.129 91.725 170.06 91.3833C181.169 90.8355 186.688 107.556 188.952 116.219C191.587 126.299 177.719 144.605 165.958 140.535C156.893 137.399 155.487 119.906 154.722 112.814C153.135 98.0854 152.845 83.5234 148.433 69.1909C146.676 63.4825 139.187 47.9861 130.84 52.9563C124.208 56.9057 116.309 60.5091 112.203 67.1768C104.521 79.6507 102.341 91.9946 104.197 106.564C106.786 126.892 107.992 150.872 127.484 162.423C132.207 165.222 140.012 167.531 145.666 164.795C157.759 158.943 164.389 155.105 170.894 142.192C176.748 130.572 183.056 117.76 187.155 105.59" stroke="#F2D9BA" stroke-opacity="0.5" stroke-width="3" stroke-linecap="round"/>
<path d="M180.314 170.353C344.686 292.07 35.1936 -64.1186 66.8261 20.6929" stroke="#A4A19D" stroke-width="2" stroke-linecap="round"/>
<defs>
<filter id="filter0_ddii_1_386" x="-18.3496" y="10.2878" width="118.025" height="119.723" filterUnits="userSpaceOnUse" color-interpolation-filters="sRGB">
<feFlood flood-opacity="0" result="BackgroundImageFix"/>
<feColorMatrix in="SourceAlpha" type="matrix" values="0 0 0 0 0 0 0 0 0 0 0 0 0 0 0 0 0 0 127 0" result="hardAlpha"/>
<feOffset dx="-16" dy="28"/>
<feGaussianBlur stdDeviation="18"/>
<feComposite in2="hardAlpha" operator="out"/>
<feColorMatrix type="matrix" values="0 0 0 0 0.337255 0 0 0 0 0.333333 0 0 0 0 0.364706 0 0 0 0.5 0"/>
<feBlend mode="normal" in2="BackgroundImageFix" result="effect1_dropShadow_1_386"/>
<feColorMatrix in="SourceAlpha" type="matrix" values="0 0 0 0 0 0 0 0 0 0 0 0 0 0 0 0 0 0 127 0" result="hardAlpha"/>
<feMorphology radius="16" operator="erode" in="SourceAlpha" result="effect2_dropShadow_1_386"/>
<feOffset dx="-12" dy="25"/>
<feGaussianBlur stdDeviation="10"/>
<feComposite in2="hardAlpha" operator="out"/>
<feColorMatrix type="matrix" values="0 0 0 0 0.32895 0 0 0 0 0.312847 0 0 0 0 0.441667 0 0 0 0.55 0"/>
<feBlend mode="normal" in2="effect1_dropShadow_1_386" result="effect2_dropShadow_1_386"/>
<feBlend mode="normal" in="SourceGraphic" in2="effect2_dropShadow_1_386" result="shape"/>
<feColorMatrix in="SourceAlpha" type="matrix" values="0 0 0 0 0 0 0 0 0 0 0 0 0 0 0 0 0 0 127 0" result="hardAlpha"/>
<feMorphology radius="4" operator="erode" in="SourceAlpha" result="effect3_innerShadow_1_386"/>
<feOffset dx="-1" dy="1"/>
<feGaussianBlur stdDeviation="1"/>
<feComposite in2="hardAlpha" operator="arithmetic" k2="-1" k3="1"/>
<feColorMatrix type="matrix" values="0 0 0 0 1 0 0 0 0 0.931869 0 0 0 0 0.8625 0 0 0 1 0"/>
<feBlend mode="normal" in2="shape" result="effect3_innerShadow_1_386"/>
<feColorMatrix in="SourceAlpha" type="matrix" values="0 0 0 0 0 0 0 0 0 0 0 0 0 0 0 0 0 0 127 0" result="hardAlpha"/>
<feMorphology radius="2" operator="erode" in="SourceAlpha" result="effect4_innerShadow_1_386"/>
<feOffset dx="3" dy="-2"/>
<feGaussianBlur stdDeviation="2"/>
<feComposite in2="hardAlpha" operator="arithmetic" k2="-1" k3="1"/>
<feColorMatrix type="matrix" values="0 0 0 0 0 0 0 0 0 0 0 0 0 0 0 0 0 0 0.25 0"/>
<feBlend mode="normal" in2="effect3_innerShadow_1_386" result="effect4_innerShadow_1_386"/>
</filter>
<filter id="filter1_dddii_1_386" x="12.3164" y="30.3684" width="213.477" height="213.477" filterUnits="userSpaceOnUse" color-interpolation-filters="sRGB">
<feFlood flood-opacity="0" result="BackgroundImageFix"/>
<feColorMatrix in="SourceAlpha" type="matrix" values="0 0 0 0 0 0 0 0 0 0 0 0 0 0 0 0 0 0 127 0" result="hardAlpha"/>
<feOffset dx="-16" dy="28"/>
<feGaussianBlur stdDeviation="18"/>
<feComposite in2="hardAlpha" operator="out"/>
<feColorMatrix type="matrix" values="0 0 0 0 0.337255 0 0 0 0 0.333333 0 0 0 0 0.364706 0 0 0 0.5 0"/>
<feBlend mode="normal" in2="BackgroundImageFix" result="effect1_dropShadow_1_386"/>
<feColorMatrix in="SourceAlpha" type="matrix" values="0 0 0 0 0 0 0 0 0 0 0 0 0 0 0 0 0 0 127 0" result="hardAlpha"/>
<feMorphology radius="16" operator="erode" in="SourceAlpha" result="effect2_dropShadow_1_386"/>
<feOffset dx="-12" dy="25"/>
<feGaussianBlur stdDeviation="10"/>
<feComposite in2="hardAlpha" operator="out"/>
<feColorMatrix type="matrix" values="0 0 0 0 0.32895 0 0 0 0 0.312847 0 0 0 0 0.441667 0 0 0 0.85 0"/>
<feBlend mode="normal" in2="effect1_dropShadow_1_386" result="effect2_dropShadow_1_386"/>
<feColorMatrix in="SourceAlpha" type="matrix" values="0 0 0 0 0 0 0 0 0 0 0 0 0 0 0 0 0 0 127 0" result="hardAlpha"/>
<feOffset dy="4"/>
<feGaussianBlur stdDeviation="6"/>
<feComposite in2="hardAlpha" operator="out"/>
<feColorMatrix type="matrix" values="0 0 0 0 0 0 0 0 0 0 0 0 0 0 0 0 0 0 0.25 0"/>
<feBlend mode="normal" in2="effect2_dropShadow_1_386" result="effect3_dropShadow_1_386"/>
<feBlend mode="normal" in="SourceGraphic" in2="effect3_dropShadow_1_386" result="shape"/>
<feColorMatrix in="SourceAlpha" type="matrix" values="0 0 0 0 0 0 0 0 0 0 0 0 0 0 0 0 0 0 127 0" result="hardAlpha"/>
<feMorphology radius="8" operator="erode" in="SourceAlpha" result="effect4_innerShadow_1_386"/>
<feOffset dx="-1" dy="1"/>
<feGaussianBlur stdDeviation="2"/>
<feComposite in2="hardAlpha" operator="arithmetic" k2="-1" k3="1"/>
<feColorMatrix type="matrix" values="0 0 0 0 0.983333 0 0 0 0 0.818891 0 0 0 0 0.651458 0 0 0 1 0"/>
<feBlend mode="normal" in2="shape" result="effect4_innerShadow_1_386"/>
<feColorMatrix in="SourceAlpha" type="matrix" values="0 0 0 0 0 0 0 0 0 0 0 0 0 0 0 0 0 0 127 0" result="hardAlpha"/>
<feMorphology radius="7" operator="erode" in="SourceAlpha" result="effect5_innerShadow_1_386"/>
<feOffset dx="3" dy="-2"/>
<feGaussianBlur stdDeviation="5"/>
<feComposite in2="hardAlpha" operator="arithmetic" k2="-1" k3="1"/>
<feColorMatrix type="matrix" values="0 0 0 0 0 0 0 0 0 0 0 0 0 0 0 0 0 0 0.25 0"/>
<feBlend mode="normal" in2="effect4_innerShadow_1_386" result="effect5_innerShadow_1_386"/>
</filter>
<radialGradient id="paint0_radial_1_386" cx="0" cy="0" r="1" gradientUnits="userSpaceOnUse" gradientTransform="translate(60.8612 37.2488) rotate(98.5537) scale(28.2251 29.2251)">
<stop stop-color="#FBF4E8"/>
<stop offset="1" stop-color="#E2C9B0"/>
</radialGradient>
<radialGradient id="paint1_radial_1_386" cx="0" cy="0" r="1" gradientUnits="userSpaceOnUse" gradientTransform="translate(56.6631 42.1492) rotate(-2.82284) scale(23.0107 23.863)">
<stop offset="0.854167" stop-color="#D5CBBD"/>
<stop offset="0.875" stop-color="#E9E3D6"/>
<stop offset="0.927083" stop-color="#E4DDCF"/>
<stop offset="0.956402" stop-color="#EBE5D8"/>
<stop offset="1" stop-color="#D6D5D5"/>
</radialGradient>
<radialGradient id="paint2_radial_1_386" cx="0" cy="0" r="1" gradientUnits="userSpaceOnUse" gradientTransform="translate(147.498 94.0424) rotate(98.2525) scale(86.6987)">
<stop stop-color="#F3D0A2"/>
<stop offset="1" stop-color="#EDB072"/>
</radialGradient>
<radialGradient id="paint3_radial_1_386" cx="0" cy="0" r="1" gradientUnits="userSpaceOnUse" gradientTransform="translate(135.054 109.107) rotate(90) scale(70.7367)">
<stop offset="0.854167" stop-color="#D5CBBD"/>
<stop offset="0.875" stop-color="#E9E3D6"/>
<stop offset="0.927083" stop-color="#E4DDCF"/>
<stop offset="0.956402" stop-color="#EBE5D8"/>
<stop offset="1" stop-color="#C7AE9D"/>
</radialGradient>
</defs>
</svg>
